<?xml version="1.0" encoding="UTF-8"?>
<svg version="1.1" xmlns="http://www.w3.org/2000/svg" width="512" height="512">
<path d="M0 0 C1.36551503 -0.00300374 2.73102923 -0.00640898 4.09654236 -0.01017761 C7.75817617 -0.01889995 11.41978652 -0.02135073 15.08142972 -0.0219934 C17.38343557 -0.02271083 19.6854357 -0.02485806 21.98744011 -0.02749062 C30.05933883 -0.03670625 38.13122119 -0.04083041 46.203125 -0.04003906 C53.6607914 -0.03943981 61.11838513 -0.04997153 68.57603317 -0.06578273 C75.03352965 -0.07897279 81.4910027 -0.08421819 87.94851249 -0.08358365 C91.78092802 -0.08333194 95.61327884 -0.08599801 99.44568062 -0.0967617 C146.84804784 -0.22026221 187.10274929 6.39293676 222.29858398 40.77026367 C223.06170898 41.55401367 223.82483398 42.33776367 224.61108398 43.14526367 C225.09448242 43.57194336 225.57788086 43.99862305 226.07592773 44.43823242 C245.41505772 62.13922433 256.20614985 89.88819526 260.61108398 115.14526367 C260.78309326 116.08837402 260.95510254 117.03148437 261.13232422 118.00317383 C261.94634225 123.80839398 261.7941377 129.6820836 261.81420898 135.53198242 C261.81990906 136.8253804 261.82560913 138.11877838 261.83148193 139.45137024 C261.84194465 142.1838927 261.84781772 144.91638616 261.85131836 147.64892578 C261.85678454 151.11721931 261.880792 154.58511664 261.90929031 158.05328655 C261.9326168 161.40034253 261.93437935 164.74734957 261.93920898 168.09448242 C261.95155579 169.32301437 261.96390259 170.55154633 261.97662354 171.81730652 C261.93257026 189.10548058 256.32366307 203.17057908 244.28295898 215.70385742 C231.23040638 227.63053195 216.07412218 231.45826554 198.8609314 231.41268921 C197.59792383 231.41722032 196.33491626 231.42175143 195.03363574 231.42641985 C191.54841457 231.43859114 188.06328982 231.43839636 184.57805228 231.4360311 C180.81100234 231.43562143 177.04398269 231.44667643 173.27694702 231.45614624 C165.90370506 231.47272561 158.53049508 231.47825442 151.15723602 231.479371 C145.15976758 231.48032305 139.16230964 231.4844412 133.16484451 231.49077225 C116.13936365 231.50837732 99.11390796 231.51761242 82.08841793 231.5161113 C81.17147878 231.51603139 80.25453964 231.51595147 79.30981445 231.51586914 C78.39174804 231.51578738 77.47368163 231.51570562 76.52779503 231.51562138 C61.65897973 231.51480898 46.79026585 231.53393691 31.92147987 231.56214587 C16.63317753 231.59092047 1.34492458 231.60468361 -13.94340551 231.60295832 C-22.51808608 231.60229594 -31.09266035 231.60772145 -39.66731644 231.62931442 C-46.9698079 231.64758669 -54.2721449 231.6518243 -61.57464941 231.63829558 C-65.29506793 231.63179587 -69.01519065 231.63153891 -72.73558044 231.64900208 C-96.09446504 231.75171485 -115.08589446 230.75920783 -132.87719727 213.85620117 C-144.94887802 200.82704651 -148.70270329 186.04378155 -148.68969727 168.73901367 C-148.69398239 167.46030396 -148.69826752 166.18159424 -148.7026825 164.86413574 C-148.71010558 162.16450844 -148.70988469 159.46501195 -148.70458984 156.76538086 C-148.69997699 154.03279073 -148.7068086 151.3006475 -148.72509766 148.56811523 C-148.82303861 133.81045005 -148.8920535 119.54910417 -145.38891602 105.14526367 C-145.20079346 104.29673828 -145.0126709 103.44821289 -144.81884766 102.57397461 C-139.93370922 81.67921948 -129.0446128 63.44933802 -115.38891602 47.14526367 C-114.80239258 46.43499023 -114.21586914 45.7247168 -113.61157227 44.99291992 C-92.52120934 20.07664082 -58.46562556 3.6359714 -26.03979588 0.85837841 C-17.34982607 0.25584968 -8.71425978 -0.00318659 0 0 Z M-94.43969727 62.89916992 C-110.73378153 80.48871087 -122.3160604 105.60132635 -122.56591797 129.82421875 C-122.5787532 130.91587845 -122.59158844 132.00753815 -122.60481262 133.13227844 C-122.61589302 134.8808741 -122.61589302 134.8808741 -122.62719727 136.66479492 C-122.63526901 137.87793869 -122.64334076 139.09108246 -122.6516571 140.34098816 C-122.66546265 142.90374334 -122.67620051 145.46651663 -122.68408203 148.02929688 C-122.69561456 150.64295866 -122.71608614 153.25659666 -122.74560547 155.87011719 C-122.78834744 159.65600516 -122.80445961 163.44119541 -122.81469727 167.22729492 C-122.83220535 168.38695267 -122.84971344 169.54661041 -122.86775208 170.7414093 C-122.84902315 177.79054654 -121.87544071 182.99218817 -118.38891602 189.14526367 C-117.94290039 189.94319336 -117.49688477 190.74112305 -117.03735352 191.56323242 C-111.78991026 198.85492505 -104.23385564 203.47403733 -95.38891602 205.14526367 C-91.28102843 205.43542112 -87.18344603 205.41941535 -83.06668091 205.40596008 C-81.20513471 205.4116984 -81.20513471 205.4116984 -79.30598152 205.41755265 C-75.87302041 205.42607113 -72.44027405 205.42565465 -69.00731921 205.42137206 C-65.30033926 205.41890214 -61.59338433 205.4279223 -57.88641357 205.43540955 C-50.62853967 205.44815126 -43.37070277 205.44995089 -36.11281957 205.44760928 C-30.21250617 205.44582535 -24.31220399 205.44757738 -18.41189194 205.45183372 C-17.57172906 205.45242891 -16.73156617 205.4530241 -15.86594381 205.45363733 C-14.15907813 205.4548491 -12.45221245 205.45606323 -10.74534677 205.4572797 C5.25758514 205.46815324 21.26049597 205.46599365 37.26342906 205.45989486 C51.89714643 205.45472606 66.53079722 205.4659805 81.16450141 205.48499308 C96.19732775 205.50437419 111.2301226 205.51262699 126.26296151 205.50886983 C134.69996654 205.50695817 143.13691492 205.50944185 151.57390976 205.52358437 C158.75656343 205.53550262 165.93912556 205.53689809 173.1217805 205.5247942 C176.7846856 205.51890858 180.44742331 205.51779719 184.11031723 205.5297966 C188.08525478 205.54266665 192.05993919 205.53218332 196.03488159 205.51948547 C197.18673946 205.52685976 198.33859733 205.53423404 199.52535999 205.54183179 C209.92146955 205.47197987 218.65591287 203.08611424 226.61108398 196.14526367 C234.31016621 187.12633878 235.9242333 179.59189586 235.94702148 167.97729492 C235.95367828 166.78786789 235.96033508 165.59844086 235.9671936 164.37297058 C235.97731044 161.85217835 235.98201092 159.33135939 235.98168945 156.81054688 C235.9860175 153.01604808 236.02222384 149.22275648 236.06030273 145.4284668 C236.22018028 111.1969545 226.53420656 82.03601664 202.11108398 57.27026367 C197.00207111 52.23234302 191.74952033 47.89754227 185.61108398 44.14526367 C184.0603418 43.16299805 184.0603418 43.16299805 182.47827148 42.16088867 C161.85419292 29.47282412 139.11828531 25.99166562 115.22973633 26 C113.81729037 25.99700055 112.40484522 25.99359624 110.99240112 25.98982239 C107.18624288 25.98105648 103.38010717 25.97864738 99.5739398 25.9780066 C97.18622961 25.97729169 94.79852499 25.97514906 92.41081619 25.97250938 C84.05292655 25.96327932 75.69505277 25.95917142 67.3371582 25.95996094 C59.59205009 25.96056057 51.84701189 25.95002513 44.10192144 25.93421727 C37.41528641 25.92106453 30.728674 25.91578028 24.04202616 25.91641635 C20.06495295 25.91666914 16.08794193 25.91394076 12.11088181 25.9032383 C-29.67892128 25.79872331 -64.28117353 31.45090867 -94.43969727 62.89916992 Z " fill="#000000" transform="translate(199.388916015625,267.854736328125)"/>
<path d="M0 0 C24.52293056 21.08927046 39.09747807 48.38201357 42.40576172 80.67431641 C44.76878787 112.85552842 34.47888344 143.66741535 13.58154297 168.15869141 C-7.80601629 192.24468104 -36.81079486 205.36530926 -68.71044922 207.83837891 C-98.15401722 209.56274599 -127.0277763 199.38717128 -149.59423828 180.67431641 C-150.45404297 179.96662109 -151.31384766 179.25892578 -152.19970703 178.52978516 C-162.75247466 169.44949673 -170.76489036 158.75132345 -177.59423828 146.67431641 C-178.39474609 145.29566406 -178.39474609 145.29566406 -179.21142578 143.88916016 C-192.91365692 118.65007638 -195.18569464 87.35315373 -187.90673828 59.86181641 C-178.7975836 29.95565783 -160.33484496 3.73282508 -132.56298828 -11.62646484 C-89.76558911 -34.16014026 -37.71432831 -31.36122553 0 0 Z M-142.78173828 29.92431641 C-159.66490352 49.16202767 -167.1612788 73.3695139 -165.59423828 98.67431641 C-163.18988638 122.88044863 -151.21422545 145.38807941 -132.64331055 161.08959961 C-113.85143709 176.20922449 -89.69100936 183.93749659 -65.57763672 181.46777344 C-40.84536939 178.4037525 -18.48691385 166.50645888 -2.78173828 146.98681641 C11.69146713 128.19581036 18.74997886 104.25550842 16.18310547 80.62451172 C12.92883182 56.73310131 1.40177632 34.37581504 -17.60986328 19.27978516 C-56.77481361 -10.48062734 -108.9610794 -5.60028407 -142.78173828 29.92431641 Z " fill="#000000" transform="translate(330.59423828125,39.32568359375)"/>
</svg>
